<?xml version="1.0" encoding="utf-8"?>
<!-- Generator: Adobe Illustrator 14.0.0, SVG Export Plug-In . SVG Version: 6.00 Build 43363)  -->
<!DOCTYPE svg PUBLIC "-//W3C//DTD SVG 1.1//EN" "http://www.w3.org/Graphics/SVG/1.1/DTD/svg11.dtd">
<svg version="1.1" xmlns="http://www.w3.org/2000/svg" xmlns:xlink="http://www.w3.org/1999/xlink" x="0px" y="0px" width="520px"
	 height="520px" viewBox="0 0 520 520" enable-background="new 0 0 520 520" xml:space="preserve">
<g id="Calque_1">
	<g>
		<path fill="#27AE60" d="M67.833,67.208c-6.25,6.25,154.531,209.532,159.375,215.625c0.156,0.234,0.469,0.391,0.625,0.625
			c0.078,0.078,1.875,2.5,1.875,2.5c7.344,8.828,18.281,14.375,30.625,14.375c22.109,0,39.922-17.969,40-40
			c0-12.344-5.625-23.281-14.375-30.625C285.958,229.708,74.239,60.802,67.833,67.208z"/>
	</g>
	<g display="none">
		<path display="inline" fill="#2980B9" d="M260,0.333c-22.109,0-40,17.891-40,40s17.891,40,40,40s40-17.891,40-40
			S282.109,0.333,260,0.333z"/>
	</g>
</g>
<g id="Calque_2">
	<path fill="#2980B9" d="M260,0c-22.109,0-40,17.891-40,40s17.891,40,40,40s40-17.891,40-40S282.109,0,260,0z M363.125,25
		c-5.859,0.313-12.656,3.203-17.5,11.25c-13.75,23.047,7.813,37.031,14.375,40.625C424.844,112.422,469.375,180.938,469.375,260
		c0,115.391-93.984,209.375-209.375,209.375S50.625,375.391,50.625,260c0-26.484,5.313-51.719,14.375-75
		c1.172-3.047,12.344-23.438-10-37.5c-15.313-9.609-30.156,1.25-33.125,8.125C7.813,187.578,0,222.891,0,260
		c0,143.594,116.406,260,260,260s260-116.406,260-260c0-102.266-59.141-190.781-145-233.125
		C374.063,26.406,368.984,24.688,363.125,25z"/>
</g>
</svg>
